<svg width="1440" height="350" viewBox="0 0 1440 350" fill="none" xmlns="http://www.w3.org/2000/svg">
<rect width="1440" height="350" fill="url(#paint0_linear_2339_7594)"/>
<path d="M567.134 124.879H560.744C560.753 126.181 561.022 127.432 561.552 128.634C562.091 129.835 562.916 130.921 564.026 131.891C565.145 132.852 566.533 133.602 568.191 134.141L565.916 137.596C564.192 137.041 562.713 136.225 561.478 135.147C560.243 134.062 559.261 132.786 558.532 131.319C557.794 132.926 556.779 134.319 555.486 135.496C554.193 136.664 552.644 137.547 550.837 138.143L548.463 134.688C550.162 134.141 551.587 133.357 552.739 132.338C553.891 131.319 554.753 130.167 555.325 128.882C555.896 127.598 556.195 126.263 556.22 124.879H549.681V121.299H567.134V124.879ZM552.789 140.095H574.331V151.432H569.831V143.675H552.789V140.095ZM569.831 119.41H574.331V127.192H578.633V130.921H574.331V138.728H569.831V119.41ZM609.069 139.349H579.881V135.781H609.069V139.349ZM582.802 126.943C582.802 125.6 583.279 124.436 584.232 123.45C585.193 122.464 586.552 121.71 588.309 121.188C590.066 120.657 592.113 120.392 594.45 120.392C596.779 120.392 598.817 120.657 600.566 121.188C602.323 121.71 603.682 122.464 604.643 123.45C605.605 124.436 606.085 125.6 606.085 126.943C606.085 128.294 605.605 129.471 604.643 130.473C603.682 131.468 602.323 132.234 600.566 132.773C598.817 133.304 596.779 133.569 594.45 133.569C592.113 133.569 590.066 133.304 588.309 132.773C586.552 132.234 585.193 131.468 584.232 130.473C583.279 129.471 582.802 128.294 582.802 126.943ZM583.399 141.5H587.899V147.255H605.737V150.873H583.399V141.5ZM587.464 126.943C587.455 127.929 588.048 128.675 589.241 129.181C590.435 129.678 592.142 129.926 594.363 129.926C596.642 129.926 598.395 129.678 599.621 129.181C600.848 128.683 601.461 127.937 601.461 126.943C601.461 125.982 600.848 125.244 599.621 124.73C598.403 124.217 596.679 123.955 594.45 123.947C592.221 123.955 590.497 124.217 589.279 124.73C588.06 125.244 587.455 125.982 587.464 126.943ZM627.533 121.672C629.157 121.672 630.608 122.141 631.884 123.077C633.16 124.005 634.159 125.331 634.88 127.055C635.601 128.779 635.965 130.78 635.974 133.059C635.965 135.363 635.601 137.381 634.88 139.113C634.159 140.837 633.16 142.167 631.884 143.103C630.608 144.031 629.157 144.496 627.533 144.496C625.901 144.496 624.442 144.031 623.157 143.103C621.881 142.167 620.883 140.837 620.162 139.113C619.441 137.381 619.084 135.363 619.093 133.059C619.084 130.78 619.441 128.783 620.162 127.067C620.883 125.344 621.881 124.013 623.157 123.077C624.442 122.141 625.901 121.672 627.533 121.672ZM623.431 133.059C623.431 134.625 623.601 135.964 623.941 137.074C624.28 138.176 624.757 139.013 625.37 139.585C625.992 140.149 626.713 140.431 627.533 140.431C628.37 140.431 629.099 140.149 629.721 139.585C630.343 139.013 630.823 138.176 631.163 137.074C631.503 135.972 631.673 134.634 631.673 133.059C631.673 131.501 631.503 130.175 631.163 129.081C630.823 127.979 630.343 127.146 629.721 126.583C629.099 126.011 628.37 125.725 627.533 125.725C626.713 125.725 625.992 126.011 625.37 126.583C624.757 127.146 624.28 127.979 623.941 129.081C623.601 130.183 623.431 131.509 623.431 133.059ZM639.678 119.41H644.166V131.493H648.889V135.234H644.166V151.432H639.678V119.41ZM667.877 125.725H656.055V131.008H666.559V134.526H656.055V140.567C658.665 140.551 660.998 140.476 663.053 140.344C665.109 140.203 667.205 139.971 669.343 139.647L669.766 143.252C667.413 143.6 665.055 143.837 662.693 143.961C660.331 144.085 657.555 144.152 654.364 144.16H651.617V122.083H667.877V125.725ZM672.203 119.41H676.74V151.432H672.203V119.41ZM706.604 123.363C706.604 125.054 706.567 126.52 706.492 127.763C706.426 129.007 706.252 130.349 705.97 131.791H709.911V135.359H680.86V131.791H701.495C701.677 130.772 701.81 129.868 701.893 129.081L684.005 129.79L683.495 126.359L702.092 125.973C702.108 125.426 702.117 125.012 702.117 124.73L702.129 124.109H684.378V120.591H706.604V123.363ZM684.03 137.236H706.741V145.652H688.517V147.603H707.86V151.071H684.079V142.432H702.278V140.667H684.03V137.236ZM740.993 147.852H711.731V144.185H724.075V139.349H715.1V128.584H733.187V125.103H715.05V121.498H737.624V132.102H719.575V135.707H738.37V139.349H728.513V144.185H740.993V147.852ZM776.588 123.848C776.588 125.257 776.571 126.458 776.538 127.453C776.513 128.439 776.438 129.549 776.314 130.784C776.198 132.019 776.012 133.328 775.755 134.712H779.969V138.305H750.781V134.712H771.205C771.487 133.32 771.694 131.973 771.827 130.672L753.988 131.368L753.478 127.739L772.063 127.341C772.088 126.595 772.1 125.874 772.1 125.178C772.108 125.02 772.112 124.784 772.112 124.469H754.361V120.889H776.588V123.848ZM754.175 140.667H758.65V147.255H777.072V150.873H754.175V140.667ZM816.794 143.054H812.319V135.247H806.426V138.007H791.186V121.548H795.686V126.458H801.989V121.548H806.426V124.805H812.319V119.46H816.794V143.054ZM795.487 140.704H800.024V147.255H817.477V150.873H795.487V140.704ZM801.989 134.476V129.864H795.686V134.476H801.989ZM812.319 131.654V128.41H806.426V131.654H812.319ZM846.347 132.437H850.524V136.154H846.347V151.432H841.822V119.41H846.347V132.437ZM820.379 142.395C823.744 142.395 826.371 142.374 828.26 142.333V139.573C827.133 139.357 826.147 138.98 825.302 138.442C824.465 137.903 823.818 137.236 823.362 136.44C822.907 135.645 822.679 134.762 822.679 133.792C822.679 132.607 823.01 131.559 823.673 130.647C824.336 129.736 825.264 129.027 826.458 128.522C827.651 128.016 829.019 127.763 830.56 127.763C832.068 127.763 833.419 128.016 834.612 128.522C835.806 129.027 836.738 129.74 837.409 130.66C838.081 131.571 838.42 132.616 838.429 133.792C838.42 134.762 838.18 135.649 837.708 136.453C837.244 137.248 836.585 137.915 835.731 138.454C834.886 138.993 833.9 139.37 832.773 139.585V142.158C835.673 142.001 838.159 141.777 840.231 141.487L840.53 144.744C838.425 145.134 836.237 145.424 833.966 145.614C831.704 145.805 829.578 145.925 827.589 145.975C825.608 146.025 823.404 146.049 820.976 146.049L820.379 142.395ZM821.001 122.99H828.26V119.596H832.773V122.99H839.983V126.508H821.001V122.99ZM826.943 133.792C826.934 134.613 827.253 135.251 827.9 135.707C828.554 136.154 829.441 136.378 830.56 136.378C831.646 136.378 832.507 136.154 833.146 135.707C833.792 135.251 834.115 134.613 834.115 133.792C834.115 132.972 833.792 132.334 833.146 131.878C832.499 131.414 831.637 131.182 830.56 131.182C829.449 131.182 828.567 131.414 827.912 131.878C827.257 132.334 826.934 132.972 826.943 133.792ZM880.923 137.099H851.66V133.768H880.923V137.099ZM855.004 138.69H877.43V146.248H859.492V148.076H878.362V151.134H855.029V143.402H872.979V141.798H855.004V138.69ZM855.253 120.007H877.392V127.515H859.765V129.23H877.939V132.263H855.303V124.668H872.892V123.052H855.253V120.007ZM886.323 155.584H882.594L884.334 145.577H889.356L886.323 155.584Z" fill="black"/>
<path d="M619.037 187.172C622.129 186.653 624.485 183.964 624.485 180.725C624.485 177.114 621.558 174.188 617.948 174.188C614.337 174.188 611.41 177.114 611.41 180.725C611.41 183.964 613.766 186.653 616.858 187.172V235H617.948H619.037V187.172Z" fill="#007AFF"/>
<path d="M691.839 228.614C688.697 229.142 686.302 231.875 686.302 235.168C686.302 238.837 689.277 241.812 692.947 241.812C696.617 241.812 699.592 238.837 699.592 235.168C699.592 231.875 697.197 229.142 694.054 228.614L694.054 180L692.947 180L691.839 180L691.839 228.614Z" fill="#007AFF"/>
<rect width="75" height="55" transform="translate(617.947 180)" fill="#007AFF" fill-opacity="0.2"/>
<path d="M641.041 192.419V196.481H627.877V202.341H639.557V206.247H627.877V212.966C633.326 212.927 637.682 212.731 642.643 211.95L643.111 215.974C637.525 216.794 632.408 216.95 626.002 216.95H622.955V192.419H641.041ZM650.885 189.489V225.036H645.846V189.489H650.885ZM683.836 190.778V193.864C683.836 196.657 683.836 199.626 683.133 203.239H687.508V207.185H655.242V203.239H678.172C678.367 202.165 678.504 201.169 678.641 200.231L658.719 201.013L658.172 197.185L678.875 196.755V194.685H659.149V190.778H683.836ZM683.992 209.294V218.63H663.758V220.817H685.242V224.646H658.797V215.036H679.031V213.083H658.758V209.294H683.992Z" fill="black"/>
<path d="M724.93 197.448C724.921 199.068 724.898 200.482 724.861 201.688C724.833 202.885 724.75 204.294 724.612 205.914C724.474 207.535 724.258 209.257 723.963 211.08L719.06 210.693C719.428 208.382 719.668 206.287 719.778 204.409C719.898 202.53 719.962 200.583 719.971 198.566H706.505V194.588H724.93V197.448ZM704.64 215.362C707.504 215.343 709.681 215.316 711.173 215.279V204.782H716.076V215.127C720.018 214.952 723.457 214.68 726.394 214.312L726.684 218C723.627 218.516 720.413 218.87 717.043 219.064C713.682 219.248 710.174 219.34 706.518 219.34H705.11L704.64 215.362ZM728.065 191.025H733.093V205.32H737.941V209.492H733.093V226.605H728.065V191.025ZM776.551 199.809H781.33V203.967H776.551V212.489H771.551V191.025H776.551V199.809ZM748.333 194.257H756.413V190.831H761.385V194.257H769.438V198.193H748.333V194.257ZM750.073 205.68C750.073 204.427 750.442 203.318 751.178 202.351C751.915 201.384 752.951 200.634 754.286 200.099C755.63 199.556 757.168 199.285 758.899 199.285C760.603 199.285 762.117 199.556 763.443 200.099C764.769 200.634 765.801 201.389 766.537 202.365C767.274 203.331 767.642 204.436 767.642 205.68C767.642 206.941 767.274 208.06 766.537 209.036C765.801 210.003 764.769 210.758 763.443 211.301C762.117 211.835 760.603 212.102 758.899 212.102C757.168 212.102 755.63 211.835 754.286 211.301C752.951 210.758 751.915 210.003 751.178 209.036C750.442 208.06 750.073 206.941 750.073 205.68ZM753.305 214.036H776.551V226.204H753.305V214.036ZM754.921 205.68C754.921 206.554 755.28 207.231 755.999 207.71C756.717 208.18 757.684 208.414 758.899 208.414C760.115 208.414 761.086 208.18 761.814 207.71C762.541 207.231 762.909 206.554 762.919 205.68C762.909 204.842 762.546 204.192 761.827 203.732C761.109 203.272 760.152 203.041 758.954 203.041C757.721 203.041 756.74 203.272 756.012 203.732C755.285 204.183 754.921 204.832 754.921 205.68ZM771.62 222.213V217.959H758.222V222.213H771.62ZM791.446 195.127C791.437 198.396 791.285 201.37 790.991 204.05C790.705 206.729 790.166 209.331 789.375 211.854C788.583 214.367 787.468 216.743 786.032 218.981L782.165 216.936C783.352 215.141 784.296 213.322 784.996 211.481C785.696 209.63 786.207 207.719 786.529 205.749C786.851 203.769 787.059 201.559 787.151 199.119H783.325V195.127H791.446ZM790.203 218.663C791.474 216.738 792.459 214.745 793.159 212.682C793.868 210.61 794.361 208.502 794.637 206.356C794.922 204.211 795.097 201.798 795.162 199.119H792.482V195.127H799.416C799.416 198.764 799.301 201.849 799.071 204.381H802.123V191.84H806.805V225.017H802.123V208.373H798.56C798.173 210.675 797.611 212.857 796.875 214.92C796.147 216.973 795.189 218.921 794.002 220.762L790.203 218.663ZM809.043 191.025H813.822V226.605H809.043V191.025ZM824.656 214.533H819.656L819.132 194.713H825.181L824.656 214.533ZM818.883 220.072C818.874 219.483 819.016 218.939 819.311 218.442C819.606 217.945 820.006 217.549 820.513 217.254C821.019 216.959 821.572 216.812 822.17 216.812C822.741 216.812 823.275 216.959 823.772 217.254C824.279 217.549 824.684 217.945 824.988 218.442C825.292 218.939 825.444 219.483 825.444 220.072C825.444 220.661 825.292 221.209 824.988 221.715C824.684 222.213 824.279 222.609 823.772 222.903C823.275 223.198 822.741 223.345 822.17 223.345C821.572 223.345 821.019 223.198 820.513 222.903C820.006 222.609 819.606 222.213 819.311 221.715C819.016 221.209 818.874 220.661 818.883 220.072Z" fill="black"/>
<defs>
<linearGradient id="paint0_linear_2339_7594" x1="720" y1="350" x2="720" y2="1.27002e-05" gradientUnits="userSpaceOnUse">
<stop stop-color="white"/>
<stop offset="1" stop-color="#E5EFFF"/>
</linearGradient>
</defs>
</svg>
