<svg width="1440" height="350" viewBox="0 0 1440 350" fill="none" xmlns="http://www.w3.org/2000/svg">
<rect width="1440" height="350" fill="url(#paint0_linear_2339_7594)"/>
<path d="M615.816 122.488C615.781 132.332 613.144 140.594 601.613 146.57L599.152 143.195C604.214 140.523 607.361 137.553 609.206 134.02L599.925 134.863L599.328 131.066L610.613 130.398C610.982 129.045 611.21 127.604 611.351 126.074H601.05V122.488H615.816ZM626.363 119.43V151.422H621.898V135.391H615.746V131.734H621.898V119.43H626.363ZM657.155 119.43V151.492H652.691V119.43H657.155ZM647.241 122.102V134.441H636.694V140.312C641.564 140.295 645.712 140.014 650.405 139.258L650.792 142.879C645.519 143.793 640.773 144.004 634.937 144.004H632.054V130.891H642.671V125.723H632.019V122.102H647.241ZM670.089 121.68C674.413 121.68 677.63 125.248 678.28 130.996H683.835V119.43H688.264V151.492H683.835V134.582H678.315C677.841 140.734 674.554 144.496 670.089 144.496C665.237 144.496 661.757 140.102 661.792 133.07C661.757 126.109 665.237 121.68 670.089 121.68ZM670.089 125.723C667.698 125.723 666.046 128.324 666.081 133.07C666.046 137.852 667.698 140.418 670.089 140.418C672.514 140.418 674.096 137.852 674.096 133.07C674.096 128.324 672.514 125.723 670.089 125.723ZM702.569 121.574C707.631 121.539 711.428 124.844 711.428 129.414C711.428 134.02 707.631 137.289 702.569 137.289C697.506 137.289 693.674 134.02 693.674 129.414C693.674 124.844 697.506 121.539 702.569 121.574ZM702.569 125.441C700.038 125.441 698.104 126.918 698.139 129.414C698.104 131.945 700.038 133.387 702.569 133.387C705.1 133.387 707.034 131.945 707.069 129.414C707.034 126.918 705.135 125.441 702.569 125.441ZM719.092 119.43V151.492H714.627V119.43H719.092ZM692.338 141.297C698.034 141.332 705.944 141.227 712.799 140.277L713.151 143.512C706.049 144.883 698.456 144.953 692.866 144.953L692.338 141.297ZM760.533 144.004V147.695H731.248V144.004H743.588V137.465H734.342V121.785H757.264V137.465H748.053V144.004H760.533ZM738.771 125.371V133.949H752.834V125.371H738.771ZM791.431 135.215V138.801H762.181V135.215H791.431ZM788.232 129.027V132.613H765.732V120.59H787.916V124.176H770.197V129.027H788.232ZM788.408 147.238V150.824H765.697V141.297H770.126V147.238H788.408ZM828.196 119.465V140.699H823.731V131.559H818.071V127.902H823.731V119.465H828.196ZM817.825 121.891C817.825 130.539 813.22 136.27 803.516 139.293L801.583 135.777C808.825 133.633 812.323 130.082 813.009 125.441H803.306V121.891H817.825ZM819.583 139.398C819.583 143.055 822.958 146.711 829.708 147.73L827.915 151.281C822.888 150.455 819.266 148.188 817.368 145.094C815.399 148.205 811.743 150.473 806.716 151.316L804.958 147.766C811.743 146.781 815.118 143.055 815.153 139.398V138.273H819.583V139.398ZM838.915 145.586L835.891 155.605H832.165L833.922 145.586H838.915Z" fill="black"/>
<path d="M550.537 187.172C553.629 186.653 555.985 183.964 555.985 180.725C555.985 177.114 553.058 174.188 549.448 174.188C545.837 174.188 542.91 177.114 542.91 180.725C542.91 183.964 545.266 186.653 548.358 187.172V235H549.448H550.537V187.172Z" fill="#007AFF"/>
<path d="M623.339 228.614C620.197 229.142 617.802 231.875 617.802 235.168C617.802 238.837 620.777 241.812 624.447 241.812C628.117 241.812 631.092 238.837 631.092 235.168C631.092 231.875 628.697 229.142 625.554 228.614L625.554 180L624.447 180L623.339 180L623.339 228.614Z" fill="#007AFF"/>
<rect width="75" height="55" transform="translate(549.447 180)" fill="#007AFF" fill-opacity="0.2"/>
<path d="M572.541 192.419V196.481H559.377V202.341H571.057V206.247H559.377V212.966C564.826 212.927 569.182 212.731 574.143 211.95L574.611 215.974C569.025 216.794 563.908 216.95 557.502 216.95H554.455V192.419H572.541ZM582.385 189.489V225.036H577.346V189.489H582.385ZM615.336 190.778V193.864C615.336 196.657 615.336 199.626 614.633 203.239H619.008V207.185H586.742V203.239H609.672C609.867 202.165 610.004 201.169 610.141 200.231L590.219 201.013L589.672 197.185L610.375 196.755V194.685H590.649V190.778H615.336ZM615.492 209.294V218.63H595.258V220.817H616.742V224.646H590.297V215.036H610.531V213.083H590.258V209.294H615.492Z" fill="black"/>
<path d="M667.029 190.047V225.594H662.263V190.047H667.029ZM659.607 190.555V223.953H654.919V207.156H652.068C651.599 214.148 648.63 218.367 644.255 218.367C639.568 218.367 636.521 213.445 636.521 205.438C636.521 197.469 639.568 192.586 644.255 192.586C648.532 192.586 651.462 196.57 652.029 203.211H654.919V190.555H659.607ZM644.255 197.273C642.263 197.273 641.091 200.008 641.13 205.438C641.091 210.906 642.263 213.602 644.255 213.562C646.286 213.602 647.497 210.906 647.497 205.438C647.497 200.008 646.286 197.273 644.255 197.273ZM684.016 198.094C684.016 204.773 686.711 211.258 692.649 213.836L689.602 217.82C685.657 215.887 683.02 212.352 681.555 207.977C679.993 212.625 677.258 216.434 673.196 218.445L670.071 214.383C676.164 211.648 678.938 204.773 678.977 198.094V192.781H684.016V198.094ZM700.579 190.047V225.672H695.657V205.242H688.664V201.219H695.657V190.047H700.579ZM742.171 190.047V196.922H746.975V201.023H742.171V207.82H737.171V190.047H742.171ZM742.171 209.227V218.914H723.538V221.297H743.186V225.203H718.655V215.32H737.21V213.055H718.577V209.227H742.171ZM723.772 191.102C729.241 191.141 733.304 194.422 733.304 199.148C733.304 203.836 729.241 207.195 723.772 207.195C718.304 207.195 714.202 203.836 714.202 199.148C714.202 194.422 718.304 191.141 723.772 191.102ZM723.772 195.164C721.038 195.164 719.046 196.648 719.085 199.148C719.046 201.688 721.038 203.25 723.772 203.25C726.507 203.25 728.46 201.688 728.46 199.148C728.46 196.648 726.507 195.164 723.772 195.164ZM757.908 192.547C763.338 192.547 767.244 197.469 767.283 205.203C767.244 213.016 763.338 217.898 757.908 217.898C752.479 217.898 748.494 213.016 748.533 205.203C748.494 197.469 752.479 192.547 757.908 192.547ZM757.908 197.039C755.174 197.039 753.338 199.93 753.338 205.203C753.338 210.516 755.174 213.367 757.908 213.367C760.682 213.367 762.479 210.516 762.518 205.203C762.479 199.93 760.682 197.039 757.908 197.039ZM776.385 190.047V203.445H781.619V207.586H776.385V225.594H771.385V190.047H776.385ZM815.247 217.391V221.453H782.708V217.391H796.419V210.828H786.146V192.312H791.146V197.82H806.654V192.312H811.614V210.828H801.38V217.391H815.247ZM791.146 206.844H806.654V201.805H791.146V206.844ZM828.485 198.992C828.485 204.734 830.086 210.672 834.93 213.797L832.235 217.664C829.168 215.809 827.215 212.762 826.102 209.109C824.813 213.133 822.684 216.492 819.461 218.445L816.414 214.773C821.688 211.492 823.641 205.242 823.641 199.227V193.094H828.485V198.992ZM847.899 190.047V225.594H843.133V190.047H847.899ZM840.438 190.555V223.953H835.789V206.102H831.18V202.039H835.789V190.555H840.438ZM883.988 217.352V221.453H851.449V217.352H858.714V208.641C855.961 207 854.3 204.48 854.3 201.336C854.3 195.594 859.925 191.766 867.66 191.766C875.355 191.766 881.019 195.594 881.058 201.336C881.039 204.402 879.418 206.902 876.761 208.562V217.352H883.988ZM867.66 195.711C862.582 195.711 859.222 197.742 859.222 201.336C859.222 204.812 862.582 206.961 867.66 206.961C872.699 206.961 876.097 204.812 876.136 201.336C876.097 197.742 872.699 195.711 867.66 195.711ZM863.636 217.352H871.722V210.438C870.453 210.691 869.086 210.828 867.66 210.828C866.234 210.828 864.886 210.711 863.636 210.438V217.352ZM893.905 193.719L893.397 213.523H888.397L887.889 193.719H893.905ZM890.936 222.352C889.1 222.352 887.616 220.867 887.655 219.07C887.616 217.273 889.1 215.828 890.936 215.828C892.655 215.828 894.179 217.273 894.179 219.07C894.179 220.867 892.655 222.352 890.936 222.352Z" fill="black"/>
<defs>
<linearGradient id="paint0_linear_2339_7594" x1="720" y1="350" x2="720" y2="1.27002e-05" gradientUnits="userSpaceOnUse">
<stop stop-color="white"/>
<stop offset="1" stop-color="#E5EFFF"/>
</linearGradient>
</defs>
</svg>
